<?xml version="1.0" standalone="no"?>
<!DOCTYPE svg PUBLIC "-//W3C//DTD SVG 20010904//EN"
 "http://www.w3.org/TR/2001/REC-SVG-20010904/DTD/svg10.dtd">
<svg version="1.0" xmlns="http://www.w3.org/2000/svg"
 width="1024.000000pt" height="1024.000000pt" viewBox="0 0 1024.000000 1024.000000"
 preserveAspectRatio="xMidYMid meet">
<metadata>
Created by potrace 1.11, written by Peter Selinger 2001-2013
</metadata>
<g transform="translate(0.000000,1024.000000) scale(0.100000,-0.100000)"
fill="#000000" stroke="none">
<path d="M4879 10236 c-2 -2 -56 -6 -119 -10 -63 -3 -128 -8 -145 -10 -34 -5
-119 -16 -180 -22 -22 -3 -65 -9 -95 -14 -30 -5 -71 -12 -90 -15 -266 -42
-779 -183 -965 -265 -11 -5 -60 -25 -110 -45 -158 -64 -468 -212 -473 -226 -2
-5 -9 -9 -15 -9 -9 0 -140 -73 -222 -123 -78 -47 -303 -196 -315 -208 -8 -8
-33 -26 -56 -41 -47 -30 -279 -214 -338 -267 -153 -139 -294 -277 -400 -392
-32 -35 -73 -80 -91 -100 -45 -48 -248 -302 -288 -360 -124 -179 -172 -252
-255 -389 -112 -186 -269 -502 -346 -695 -53 -134 -131 -349 -135 -370 -1 -5
-15 -53 -31 -105 -66 -216 -141 -569 -164 -775 -3 -27 -8 -61 -10 -75 -5 -28
-15 -130 -25 -270 -8 -99 -6 -689 3 -726 2 -11 7 -58 11 -105 3 -46 8 -91 10
-99 3 -8 7 -37 9 -65 8 -82 61 -385 72 -415 3 -8 8 -28 11 -45 2 -16 14 -66
25 -110 11 -44 21 -87 23 -95 2 -8 8 -26 13 -40 5 -14 10 -27 10 -30 0 -26 73
-249 131 -404 80 -213 229 -534 319 -689 12 -20 31 -54 43 -75 112 -199 353
-545 499 -716 382 -445 804 -808 1275 -1093 157 -95 400 -223 555 -291 41 -19
89 -40 105 -47 34 -16 185 -76 200 -80 6 -1 24 -8 40 -14 17 -7 84 -31 150
-52 324 -106 687 -187 1010 -224 28 -3 66 -8 85 -10 213 -27 764 -27 1010 0
19 2 62 6 95 10 33 3 71 7 85 10 14 2 43 7 65 10 53 8 84 13 185 31 47 9 96
18 110 20 14 3 84 19 155 36 72 18 132 33 135 33 119 28 391 121 593 202 231
92 579 266 737 368 283 182 424 282 590 419 215 178 450 408 626 612 97 113
101 118 182 224 40 52 79 102 85 110 24 30 224 336 264 405 248 425 427 855
548 1318 19 73 36 143 39 157 2 14 14 70 26 125 11 55 23 116 26 135 2 19 11
76 19 125 13 84 24 185 44 394 8 96 7 649 -2 731 -3 30 -9 87 -12 125 -8 91
-43 337 -55 395 -6 25 -19 90 -30 145 -51 261 -171 659 -254 848 -7 18 -30 73
-51 122 -201 484 -539 1013 -909 1420 -234 258 -570 559 -790 710 -351 240
-478 316 -775 461 -469 230 -1082 415 -1556 469 -27 3 -63 8 -80 10 -16 2 -64
7 -105 10 -41 3 -86 8 -100 12 -26 5 -625 14 -631 9z"/>
</g>
</svg>
