<svg xmlns="http://www.w3.org/2000/svg" xmlns:xlink="http://www.w3.org/1999/xlink" width="350mm" height="350mm" viewBox="0 0 1240.158 1240.158"><defs><linearGradient id="a"><stop offset="0" stop-color="#f57900"/><stop offset="1" stop-color="#fcaf3e"/></linearGradient><linearGradient gradientUnits="userSpaceOnUse" y2="-317.424" x2="1574.74" y1="799.321" x1="449.627" id="b" xlink:href="#a"/><linearGradient gradientUnits="userSpaceOnUse" y2="73.177" x2="1200.015" y1="1223.339" x1="21.473" id="c" xlink:href="#a"/><linearGradient gradientUnits="userSpaceOnUse" y2="1024.828" x2="-282.882" y1="1024.828" x1="-291.5" id="d" xlink:href="#a"/><linearGradient gradientUnits="userSpaceOnUse" y2="1024.828" x2="-261.922" y1="1024.828" x1="-270.539" id="e" xlink:href="#a"/></defs><path d="M109.593 344.118A580.302 580.3 28.395 0 1 896.04 109.595a580.302 580.3 28.395 1 1-786.446 234.523z" fill="url(#b)" fill-rule="evenodd" stroke="#e2e3e0" stroke-width="15" opacity=".99"/><g style="line-height:125%"><path style="-inkscape-font-specification:'FTY STRATEGYCIDE NCV'" d="M219.125 528.912l-22.93-3.303-4.968 34.488c-.375 2.61-1.868 3.727-4.851 3.297l-82.958-11.948c-2.61-.376-4.1-1.923-3.724-4.532l1.933-13.423 23.117 3.33 3.356-23.303-29.455-4.243c-5.779-.832-16.2 4.137-18.079 17.187l-3.84 26.658c-1.691 11.745 8.711 22.757 18.964 24.234l92.093 13.264c10.253 1.477 23.501-7.271 25.032-17.897zm2.909-13.023l8.779-24.664-46.845-16.674 6.19-17.39 46.844 16.674 8.78-24.664-105.046-37.39c-15.082-5.368-31.542 4.367-37.037 19.805l-2.969 8.34c-5.431 15.26 1.176 33.205 16.259 38.574zm-59.004-48.79l-35.488-12.632c-7.098-2.526-9.281-6.502-8.018-10.051l1.642-4.614c1.263-3.549 6.532-4.872 12.565-2.724l35.489 12.631zm88.81-30.322l13.58-22.383-49.113-29.797c1.66-2.738 13.359-10.4 21.553-8.292l37.036 22.47 13.873-22.866-39.451-23.936c-13.68-3.232-25.339 2.912-29.328 6.22 3.205-8.19-.283-21.32-6.109-25.516l-26.408-16.023c-4.67-2.833-20.46-4.041-30.522 12.545l-22.178 36.553zm-50.67-61.364l-34.62-21.004 6.35-10.467c2.247-3.704 5.478-3.946 8.698-1.992l17.392 10.55c6.367 5.846 4.439 17.012 2.181 22.912zm103.58-17.66l22.338-24.746-13.064-7.733-73.679-66.51 14.387-15.939-16.916-15.27-47.075 52.148 16.917 15.27 14.387-15.938 73.68 66.51zm74.697-66.226c12.943-9.74 17.434-28.205 7.807-40.997L335.5 181.753c-9.626-12.792-28.726-13.74-41.668-4.001l-7.826 5.889c-13.093 9.852-17.471 28.468-7.845 41.26l51.754 68.777c9.626 12.792 28.613 13.59 41.706 3.738zm-17.571-10.82c-2.107 1.585-7.908 1.707-12.438-4.313l-49.376-65.616c-4.53-6.02-3.709-10.88-.699-13.146l4.214-3.17c3.01-2.266 8.437-.692 12.287 4.425l49.376 65.616c3.85 5.117 2.957 11.447.85 13.032zm102.726-41.132l-10.326-20.738-23.267 11.584c-2.36 1.176-4.128.162-5.303-2.199l-48.773-97.958-23.942 11.92 52.131 104.703c4.701 9.442 16.149 14.262 25.928 9.393zm8.648-3.899l25.173-7.195-13.667-47.809 17.747-5.073 13.667 47.809 25.172-7.196-30.646-107.207c-4.4-15.392-21.89-23.126-37.646-18.622l-8.51 2.433c-15.575 4.452-26.335 20.26-21.935 35.654zm5.398-76.372l-10.354-36.219c-2.07-7.244-.104-11.331 3.517-12.367l4.709-1.346c3.622-1.035 7.761 2.483 9.522 8.64l10.353 36.218zm132.053 49.686l26.888 1.567 2.797-47.946c16.91-2.033 43.402-16.336 44.224-30.438l2.117-36.289c.241-4.136-.48-7.952-3.822-12.109-4.592-5.362-11.208-8.389-19.67-8.882l-44.561-2.6zm30.436-68.976l2.632-45.126 12.222.713c3.948.23 5.885 2.607 5.644 6.744l-1.382 23.691c-.438 7.521-12.657 13.223-19.116 13.978zm50.028 74.908l25.31 6.693 14.686-55.537c3.096.819 13.755 9.872 14.051 18.328l-11.075 41.88 25.857 6.837 11.797-44.611c-.77-14.036-9.961-23.48-14.262-26.37 8.761.758 20.37-6.303 22.746-13.078l7.896-29.863c1.397-5.28-1.911-20.766-20.666-25.726l-41.334-10.93zm44.523-65.96l10.352-39.148 11.836 3.13c4.188 1.107 5.335 4.138 4.372 7.78l-5.2 19.665c-3.806 7.76-15.063 9.07-21.36 8.573zm87.713 114.014l9.98-20.907-24.645-11.766c-2.21-1.054-2.912-2.642-1.695-5.192l18.744-39.263 26.345 12.577 9.25-19.376-26.345-12.578 7.465-15.637c1.048-2.63 2.886-3.422 5.266-2.286l24.646 11.765 9.98-20.906-34.844-16.634c-9.858-4.707-21.556.562-26.019 9.91l-41.707 87.365c-4.382 9.178-1.123 21.587 8.735 26.293zm12.106 3.789l20.402 16.704 70.753-86.421c2.028-2.478 3.963-1.868 5.711-.436l5.684 4.653c2.915 2.387 2.357 7.528-1.7 12.483L869.9 294.923l19.966 16.346 70.752-86.421c2.028-2.478 3.963-1.868 5.712-.436l5.683 4.653c2.915 2.387 2.357 7.528-1.7 12.483l-66.457 81.175 20.403 16.703 68.963-84.235c10.141-12.387 6.847-30.663-5.832-41.043l-19.966-16.346-5.965 7.287c.705-7.699-5.256-16.474-11.523-21.604l-27.69-22.67-86.74 105.95zm93.779 83.783l20.416 25.395 9.708-11.671 83.377-67.03 13.632-7.093-20.416-25.395-9.855 11.79-83.378 67.03zm57.316 83.715l19.854-11.938-14.074-23.405c-1.262-2.098-.973-3.81 1.448-5.266l37.286-22.422 15.044 25.019 18.401-11.065-15.045-25.019 14.85-8.93c2.324-1.617 4.295-1.264 5.654.996l14.074 23.404 19.853-11.938-19.898-33.09c-5.63-9.361-18.294-11.416-27.171-6.077l-82.964 49.89c-8.717 5.242-12.84 17.39-7.21 26.753zm5.638 10.638l9.098 24.549 53.865-19.964c1.112 3.002-.153 16.93-6.897 22.04l-40.619 15.055 9.295 25.078 43.268-16.037c11.034-8.71 13.464-21.662 13.352-26.843 4.424 7.6 16.88 13.027 23.787 11.07l28.964-10.735c5.121-1.899 15.88-13.519 9.138-31.71l-14.859-40.089zm79.564-1.568l37.97-14.073 4.255 11.48c1.505 4.061-.313 6.744-3.845 8.053l-19.073 7.07c-8.537 1.355-16.088-7.095-19.307-12.53zm-42.684 137.349l22.839-3.885-4.58-26.923c-.41-2.414.482-3.903 3.267-4.377l42.892-7.296 4.896 28.78 21.167-3.6-4.895-28.78 17.082-2.906c2.754-.66 4.46.387 4.902 2.987l4.58 26.923 22.839-3.885-6.475-38.064c-1.832-10.77-12.877-17.297-23.09-15.56l-95.438 16.235c-10.027 1.705-18.293 11.517-16.46 22.287z" font-weight="400" font-size="37.5" font-family="FTY STRATEGYCIDE NCV" letter-spacing="-1.18" word-spacing="0" fill="#fff"/></g><g style="line-height:125%"><path style="line-height:0%;-inkscape-font-specification:'FTY STRATEGYCIDE NCV'" d="M1005.424 768.64l-12.018 25.873 68.327 31.738-13.542 29.153 20.772 9.648 13.541-29.153 16.763 7.787c2.818 1.087 3.683 3.04 2.498 5.59l-12.695 27.331 22.411 10.41 17.773-38.263c4.91-10.568-.842-22.986-10.863-27.64zm-28.031 59.858l-16.345 22.643 43.005 31.043-11.524 15.964-43.004-31.043-16.345 22.642 96.434 69.612c13.846 9.995 33.606 4.933 43.836-9.24l5.527-7.655c10.112-14.01 8.696-34.358-5.15-44.353zm45.881 67.562l32.58 23.517c6.515 4.704 7.566 9.427 5.214 12.684l-3.057 4.236c-2.352 3.258-8.143 3.042-13.681-.956l-32.58-23.518zm-100.298 4.892l-21.058 18.645 78.444 88.594c3.33 3.76 1.826 5.092-.732 7.356l-5.114 4.529c-3.008 2.663-8.46 1.051-12.855-3.913l-74.182-83.78-21.058 18.645 76.845 86.789c11.454 12.936 31.258 12.574 44.344.987l32.19-28.5zm-81.26 65.182l-30.888 17.618 10.656 12.194 52.456 91.967-19.895 11.348 12.044 21.115 65.093-37.127-12.044-21.116-19.894 11.348-52.456-91.968zm-56.712 31.276l-26.567 8.604 16.342 50.458-18.73 6.066-16.342-50.458-26.567 8.605 36.645 113.148c5.261 16.246 24.193 23.84 40.821 18.455l8.983-2.909c16.437-5.323 27.322-22.575 22.06-38.82zm-2.92 81.615l12.38 38.226c2.475 7.645.532 12.076-3.291 13.314l-4.97 1.61c-3.822 1.237-8.366-2.36-10.47-8.858l-12.38-38.226zm-82.635-55.9l-53.73 5.8c-7.59.82-12.051 8.17-11.361 14.563l4.7 43.543c1.25 11.585 3.188 16.428 13.573 22.784l29.278 16.642 1.725 15.98c.323 2.996-1.102 4.766-4.099 5.09l-26.965 2.91 2.63 24.369 39.75-4.29c12.383-1.337 20.472-12.516 19.308-23.302l-3.385-31.36c-.755-6.99-8.463-11.008-15.594-15.29l-26.244-14.748-3.19-29.561c-.497-4.595.103-4.66 3.698-5.047l32.558-3.515zm-103.669 5.227l-27.782-2.828-4.21 41.373c-13.216.876-26.54 6.79-27.964 20.78l-8.198 80.548 27.981 2.848 7.385-72.552c.753-7.395 7.115-10.383 12.511-9.834 5.197.53 11.027 4.758 10.274 12.153l-7.385 72.553 27.982 2.848 8.199-80.548c1.424-13.99-10.036-22.427-23.004-25.968zm-160.36-43.224l-9.367 22.867 34.394 14.087c2.603 1.066 3.371 2.9 2.153 5.875l-33.886 82.731c-1.066 2.603-3.053 3.743-5.655 2.677l-13.386-5.483 9.442-23.053-23.239-9.518-12.031 29.374c-2.36 5.763.077 17.834 13.09 23.164l26.586 10.89c11.713 4.797 25.806-3.109 29.994-13.334l37.616-91.84c4.188-10.226-1.425-26.202-12.022-30.543zm-63.115-40.222l-13.494 20.702 23.226 15.139c2.357 1.536 2.38 3.709.843 6.065l-63.738 97.785 23.9 15.578 68.126-104.517c6.143-9.425 4.391-22.558-5.37-28.92zm-36.782-37.636c-12.367-12.066-32.706-13.947-44.772-1.58l-82.919 84.983 20.132 19.642 81.656-83.689c5.612-5.752 10.298-5.951 13.174-3.145l3.307 3.227c2.876 2.806 1.81 8.502-2.82 13.247l-81.657 83.689 20.131 19.642 82.92-84.983c12.065-12.366 9.685-32.653-2.682-44.719zm-35.18-32.702l-26.357-40.376c-11.42-17.496-28.928-16.383-33.807-13.199l-29.104 18.999c-6.949 4.056-12.54 17.543-7.73 27.118-6.023-5.185-17.956-4.353-25.007-1.19l-23.048 15.046c-4.879 3.185-13.82 17.419-2.51 34.747l25.259 38.693zm-32.483-11.905l-38.861 25.368c-3.309-3.598-6.96-6.252-9.727-8.285-3.155-2.26-.678-10.594 5.547-14.657l25.57-16.693c3.365-2.196 6.599-2.388 9.344 1.818zm-54.339 35.472l-31.627 20.645-7.248-11.103c-2.526-3.87-1.269-7.089 2.096-9.285l13.627-8.896c8.551-2.703 18.519 3.746 23.152 8.639z" font-weight="400" font-size="40" font-family="FTY STRATEGYCIDE NCV" letter-spacing="-1.18" word-spacing="0" fill="#fff"/></g><path d="M277.013 434.608a389.987 389.986 28.395 0 1 528.525-157.61 389.987 389.986 28.395 1 1-528.525 157.61z" fill="#ececec" fill-rule="evenodd"/><path d="M83.776 738.383l27.573-38.182-15.822-44.36 44.834 14.425 37.3-28.755.135 47.097 38.874 26.588-44.75 14.683-13.274 45.187-27.792-38.022zm952.414-28.7l27.573-38.182-15.822-44.36 44.834 14.425 37.3-28.755.135 47.096 38.875 26.589-44.75 14.682-13.274 45.188-27.793-38.022z" fill="#fff"/><path d="M632.499 476.91a324.526 133.948 0 0 0-324.527 133.95 324.526 133.948 0 0 0 132.852 107.908l1.784 172.676s31.617 74.906 190.87 71.841c159.25-3.064 185.793-74.567 185.793-74.567v-168.52a324.526 133.948 0 0 0 137.754-109.337 324.526 133.948 0 0 0-324.526-133.95z" fill="url(#c)" fill-rule="evenodd" stroke="#fff" stroke-width="16.835"/><g transform="matrix(6.44872 0 0 6.70115 2412.182 -6292.117)" fill="#fff" stroke="#000" stroke-width="1.656"><path d="M-296.766 973.057a3.72 3.72 0 0 0-.662.072c-2.63.525-3.118 4.52-3.724 7.133-1.674 7.218-.953 14.972.568 22.224.97 4.628 5.367 13.131 5.367 13.131s-4.112 3.878-5.05 6.44c-.783 2.135-.431 9.32-.431 9.32s11.487 5.128 24.628 4.92c13.14-.208 16.998-1.983 24.226-4.92 0 0 .528-7.185-.254-9.32-.938-2.562-5.05-6.44-5.05-6.44s4.396-8.503 5.367-13.13c1.52-7.253 2.242-15.007.568-22.225-.606-2.614-1.094-6.608-3.725-7.133-3.575-.714-6.402 3.957-8.398 7.008-3.541 5.41-5.428 18.625-5.428 18.625l-1.832 9.09c-2.033-.448-5.525-1.496-5.525-1.496l-5.649 1.496-1.83-9.09s-1.888-13.214-5.43-18.625c-1.871-2.86-4.472-7.144-7.736-7.08z" fill-rule="evenodd" stroke="#e2e3e0" stroke-width="2.282" stroke-linejoin="round"/><path d="M-285.242 1020.542l-.09 3.037 2.45 1.797-2.917.852-.951 2.886-1.712-2.51-3.038-.014 1.858-2.403-.926-2.894 2.86 1.025z" fill="url(#d)" stroke="none"/><path d="M-264.281 1020.542l-.091 3.037 2.45 1.797-2.916.852-.951 2.886-1.712-2.51-3.038-.014 1.858-2.403-.926-2.894 2.86 1.025z" fill="url(#e)" stroke="none"/><rect ry="1.452" width="4.167" height="2.904" x="-278.34" y="1031.768" fill="none" stroke="#e2e3e0"/></g></svg>